<?xml version="1.0" encoding="utf-8"?>
<!-- Generator: Adobe Illustrator 22.1.0, SVG Export Plug-In . SVG Version: 6.00 Build 0)  -->
<svg version="1.1" id="Ebene_1" xmlns="http://www.w3.org/2000/svg" xmlns:xlink="http://www.w3.org/1999/xlink" x="0px" y="0px"
	 viewBox="0 0 277.3 120.9" style="enable-background:new 0 0 277.3 120.9;" xml:space="preserve">
<style type="text/css">
	.st0{fill-rule:evenodd;clip-rule:evenodd;fill:#FFFFFF;}
	
		.st1{fill-rule:evenodd;clip-rule:evenodd;fill:none;stroke:#000000;stroke-width:0.6698;stroke-linecap:round;stroke-linejoin:round;stroke-miterlimit:10;}
	.st2{fill-rule:evenodd;clip-rule:evenodd;fill:#D0D0D0;}
	
		.st3{fill-rule:evenodd;clip-rule:evenodd;fill:none;stroke:#000000;stroke-width:0.1667;stroke-linecap:round;stroke-linejoin:round;stroke-miterlimit:10;}
	.st4{fill-rule:evenodd;clip-rule:evenodd;fill:#EDEDED;}
	.st5{fill-rule:evenodd;clip-rule:evenodd;fill:#646363;}
	
		.st6{fill-rule:evenodd;clip-rule:evenodd;stroke:#000000;stroke-width:0.2673;stroke-linecap:round;stroke-linejoin:round;stroke-miterlimit:10;}
	.st7{fill-rule:evenodd;clip-rule:evenodd;}
	
		.st8{fill-rule:evenodd;clip-rule:evenodd;fill:none;stroke:#FFFFFF;stroke-width:0.2344;stroke-linejoin:round;stroke-miterlimit:10;}
	.st9{fill-rule:evenodd;clip-rule:evenodd;fill:#004F9F;}
</style>
<g>
	<path class="st0" d="M269.9,68.1v-5.9c1-5.8,0.9-10.6,0-15.6v-3.2c1.6-3.2,2.5-7.2,2.3-10.3c5.6,8.9,7.7,27.9-1.6,44.9
		C270.6,74.4,270.6,71.1,269.9,68.1L269.9,68.1z M269.9,62.2c0.9-5.6,0.9-10.7,0-15.4V62.2z M269.9,43.5v3.2
		c-0.1-0.7-0.4-1.4-0.5-2.2c-4.2-5.3-8.3-7.6-15-10.4c-2.2,1.7-4.7,3.4-7.2,4.9V13.4c1,0.6,2,1.1,3,1.7c2.4,5.3,3.2,11.6,4.2,19
		c-2.4,1.8-4.8,3.4-7.2,4.9v31.1c2.2,1.9,4.5,3.6,6.8,5.3c-1.4,5.3-3.8,10.8-6.8,15.5V70.1c2.2,1.9,4.4,3.6,6.8,5.3
		c6.6-1.7,11.1-5.5,15.1-9.5c0.3-1.2,0.6-2.4,0.8-3.6v5.9c-0.2-0.8-0.5-1.5-0.8-2.3c0.3-1.2,0.6-2.4,0.8-3.7V46.7
		c-0.1-0.8-0.4-1.5-0.5-2.3C269.5,44.2,269.7,43.9,269.9,43.5L269.9,43.5z M247.2,13.3V6.7c5.2,2.8,9.8,6.4,13.5,10.7
		c-3.3-1.3-6.9-2.2-10.5-2.4C249.2,14.5,248.2,13.9,247.2,13.3z M247.2,6.7v6.6c-3.9-2-8-3.9-12.4-5c-3.2-2.9-6.7-5.7-10.3-7.8
		C232.5,0.9,240.3,3,247.2,6.7L247.2,6.7z M247.2,13.4c-3.7-2-7.6-3.8-12.2-5c-5.8,0.2-10.9,2.8-15.6,6.6v11.6
		c0.6,2.2,1.2,4.2,1.9,6.2c-0.6,0.6-1.2,1.1-1.9,1.7v-7.8c0.6,2.1,1.2,4.2,1.9,6.1c7.7,2.1,14.9,5.1,21.4,8.8
		c1.7-0.9,3.1-1.7,4.6-2.6v31.1c-2.4-2-4.7-4-6.8-6.2c-6.6,2.3-14,4.2-21,4.9v25.3c2.2,1.7,4.5,3,7.1,4.1c7.7,0.4,13.7-1.9,19.4-5.5
		c0.4-0.6,0.9-1.2,1.3-1.9V70.1c-2.4-2-4.6-4.1-6.8-6.3c1.3-7.5,2.2-15.3,2.2-22.2c1.6-0.9,3.1-1.7,4.6-2.6V13.4z M219.3,15v11.6
		c-0.9-3.2-1.6-6.6-1.9-10c-0.9-0.3-1.9-0.5-2.8-0.8v23.1c1.6-1.6,3.2-3.1,4.7-4.5v-7.8c-0.9-3.5-1.7-7.1-1.9-10.1
		C218.1,16,218.7,15.5,219.3,15L219.3,15z M219.3,68.8v25.3c-1.7-1.3-3.2-2.7-4.7-4.3V78.7c1.8-3.3,3.2-6.6,3.9-9.7
		c-1.2-1.5-2.5-3.1-3.9-4.8v14.5c1.7-3,3-6,3.9-9.7C218.8,68.8,219.1,68.8,219.3,68.8z M192.5,20.5c1.9-2,3.9-4,5.8-6
		c0.5-3.2,1.4-6.6,2.7-9.6c-3.2,1.7-6,3.5-8.6,5.5V20.5c1.9-2.1,3.9-4,6-6c5.7-0.3,10.9,0.1,16.1,1.3v23.1
		c-3.1,3.2-6.1,6.9-8.3,11.4c-4.6-0.4-9.2-0.6-13.8-0.9V20.5L192.5,20.5z M214.6,64.2c-3.1-4-6.3-8.7-8.3-13.9
		c-4.6-0.4-9.4-0.6-13.8-0.9v35.9c6.6,0.9,12.3-0.1,18.3-0.6c1.4-1.9,2.7-4,3.8-6v11.1c-1.4-1.6-2.7-3.2-3.8-5
		c1.4-2.1,2.7-4,3.8-6.1V64.2z M184,31.5c2.6-4.1,5.5-7.7,8.5-11v28.9c-1-0.1-2.1-0.1-3.2-0.2C186.2,44.4,184.2,38,184,31.5
		c2.6-4,5.5-7.6,8.5-11V10.4c-9.6,7.4-15.5,17.4-19.2,29.4C176.8,36.6,180.4,34.1,184,31.5L184,31.5z M192.5,49.4v35.9
		c-0.1,0-0.3,0-0.4-0.1c-5.2-5.2-9.7-11.2-12.1-18.4c1.8-6.4,5.4-12.1,9.4-17.6C190.4,49.3,191.5,49.3,192.5,49.4z"/>
	<path class="st1" d="M184,31.5c4.2-6.6,9.1-11.9,14.3-17c0.5-3.2,1.4-6.6,2.7-9.6c-14.9,7.8-23.1,19.6-27.7,34.9
		C176.8,36.6,180.4,34.1,184,31.5L184,31.5z M210.8,84.8c3.6-5,6.6-10.7,7.7-15.8c-4-4.9-9.3-11.3-12.2-18.7
		c-5.8-0.4-11.6-0.7-17-1.1c-4,5.5-7.6,11.2-9.4,17.6c2.4,7.2,6.9,13.2,12.1,18.4C198.9,86.3,204.7,85.3,210.8,84.8L210.8,84.8z
		 M218.5,68.9c7.2-0.7,14.9-2.6,21.8-5c4.2,4.1,8.9,8.1,13.6,11.4c-1.7,6-4.5,12.2-8.1,17.4c-5.8,3.6-11.7,5.9-19.4,5.5
		c-6.8-2.8-11.7-7.6-15.6-13.5C214.3,79.6,217.1,75,218.5,68.9L218.5,68.9z M269.4,44.4c1.6,6.3,1.7,13.4-0.3,21.4
		c1.5,3.5,1.5,7.6,1.5,12.3c9.3-17.1,7.2-36,1.6-44.9C272.4,36.6,271.2,41.1,269.4,44.4L269.4,44.4z M242.6,41.6
		c4.1-2.2,8.2-4.8,11.8-7.5c6.7,2.7,10.8,5.1,15,10.4c1.7,6.8,1.8,12.9-0.3,21.4c-4,4-8.5,7.8-15.1,9.5c-4.9-3.4-9.4-7.3-13.6-11.5
		C241.6,56.3,242.6,48.5,242.6,41.6L242.6,41.6z M224.5,0.5c3.6,2.2,7.1,5,10.3,7.8c5.5,1.4,10.7,4,15.4,6.7
		c3.6,0.1,7.2,1.1,10.5,2.4C252.1,7.5,238.6,1.2,224.5,0.5L224.5,0.5z M221.2,32.8c-1.7-5-3.5-11.4-3.7-16.2
		c5.2-4.6,11-7.9,17.5-8.2c5.9,1.5,10.5,4.1,15.3,6.7c2.4,5.3,3.2,11.6,4.2,19c-3.7,2.8-7.4,5.3-11.8,7.5
		C236.1,37.9,228.9,34.9,221.2,32.8L221.2,32.8z M206.4,50.3c3.7-7.6,9.8-13,14.8-17.5c-1.6-5-3.2-10.4-3.7-16.2
		c-6.2-1.9-12.2-2.4-18.9-2.1c-5.4,5-10.3,10.6-14.5,17c0.2,6.6,2.2,13,5.3,17.7C195,49.6,200.7,49.8,206.4,50.3z"/>
</g>
<path class="st2" d="M226.4,98.2c7.5,0.4,14.2-2.2,19.4-5.5c2.9,0.8,6,1.8,9.1,1.4c-10.2,6.6-22.9,9.7-37.5,8.3
	C221.3,101.3,224,100.1,226.4,98.2L226.4,98.2z M180,66.8c2.4,7.6,7.3,13.5,12,18.4c0.1,2.3,0.5,5.2,1,7.5
	c-10.4-6.9-18.6-24.3-20.4-34.5C174.5,61.9,176.9,64.5,180,66.8z"/>
<path class="st3" d="M226.4,98.2c7.5,0.4,14.2-2.2,19.4-5.5c2.9,0.8,6,1.8,9.1,1.4c-10.2,6.6-22.9,9.7-37.5,8.3
	C221.3,101.3,224,100.1,226.4,98.2L226.4,98.2z M180,66.8c2.4,7.6,7.3,13.5,12,18.4c0,2.3,0.5,5.2,1,7.5
	c-10.4-6.9-18.6-24.3-20.4-34.5C174.5,61.9,176.9,64.5,180,66.8z"/>
<path class="st4" d="M245.9,92.7c-5.8,3.6-11.7,5.9-19.4,5.5c-6.8-2.8-11.7-7.6-15.6-13.5C225.9,96.9,228.3,94,245.9,92.7
	L245.9,92.7z M192.4,85.3c6.6,0.9,12.5-0.1,18.4-0.6c-10-1-15-4.1-18.4-8V85.3L192.4,85.3z M192.4,49.4v-4.3c2.7,1.2,6.9,2.7,14,5.2
	C201.7,49.9,197,49.6,192.4,49.4L192.4,49.4z M192.4,12.5v-1.9c2.5-2,5.3-3.8,8.4-5.4C198.4,7.1,195.3,9.7,192.4,12.5L192.4,12.5z
	 M242.6,41.6c3.7,16.1-3.7,16.3,11.4,33.8c-4.9-3.4-9.4-7.3-13.6-11.5C241.6,56.3,242.6,48.5,242.6,41.6L242.6,41.6z M221.2,32.8
	c7.7,2.1,14.9,5.1,21.4,8.8c-2.7-6.3-14.8-7.6-19-11.8c-1.8-4.7-1.9-9-6.1-13.2C217.7,21.4,219.5,27.7,221.2,32.8z M192.4,10.7v1.9
	c-6.3,6.1-12,13.6-8.4,18.9c-3.7,2.7-6.9,4.7-10.4,7.9C177.8,26.7,183.8,17.4,192.4,10.7L192.4,10.7z M192.4,45.1
	c-6.1-2.7-4.2-4.2-8.4-13.6c0.2,6.6,2.2,13,5.3,17.7c1,0.1,2,0.1,3,0.2V45.1L192.4,45.1z M192.4,76.8v8.6l-0.3-0.1
	c-5.2-5.2-9.7-11.2-12.1-18.4c1.8-6.4,5.4-12.1,9.4-17.6c-4.5,12.8-2.7,19,0.6,24.3C190.7,74.6,191.5,75.7,192.4,76.8z"/>
<g>
	<path class="st5" d="M172.6,58.3c1.9,3.8,4.4,6.2,7.4,8.6c2-6.9,5.8-12.5,9.4-17.6c-3.1-4.9-5-10.8-5.3-17.7
		c-3.5,2.7-7.1,5-10.7,8.4c-1.4,2.9-2.2,6.3-2.3,9.7v1.3C171.1,53.5,171.6,56.1,172.6,58.3L172.6,58.3z M253.9,75.3
		c6.1-1.4,10.4-4.8,15.1-9.5c1.5,3.5,1.5,8.4,1.5,12.3c-3.3,7.1-8.6,12.7-15.6,15.9c-2.7,0.4-5.8-0.5-9.1-1.3
		C249.6,87.3,252.3,81.4,253.9,75.3L253.9,75.3z M250.2,15.1c2.4,5.3,3.4,12.1,4.2,19c5.6,2.4,10.3,4.4,15,10.4
		c1.9-3.5,3-7.6,2.8-11.2c-2.3-6.9-6-12.2-11.4-15.8C257.3,16.1,253.7,15.2,250.2,15.1L250.2,15.1z M198.5,14.5
		c6.3-0.3,12.8,0.2,18.9,2.1c5.5-5.3,12-8,17.4-8.2c-3.2-3-6.5-5.5-10.3-7.8c-8.1-1.2-15.5-0.1-23.4,4.4
		C199.9,7.9,198.9,11.1,198.5,14.5L198.5,14.5z M206.4,50.3c3.9-7.4,9.1-12.6,14.8-17.5c7.8,2.1,14.8,5,21.4,8.8
		c0,7-0.9,14.8-2.2,22.3c-7.2,2.6-14.6,4.3-21.8,4.9C213.8,63.3,209,57,206.4,50.3z"/>
	<path class="st3" d="M172.6,58.3c1.9,3.8,4.4,6.2,7.4,8.6c2-6.9,5.8-12.5,9.4-17.6c-3.1-4.9-5-10.8-5.3-17.7
		c-3.5,2.7-7.1,5-10.7,8.4C170.6,45.4,170.4,53.1,172.6,58.3L172.6,58.3z M253.9,75.3c6.1-1.4,10.4-4.8,15.1-9.5
		c1.5,3.5,1.5,8.4,1.5,12.3c-3.3,7.1-8.6,12.7-15.6,15.9c-2.7,0.4-5.8-0.5-9.1-1.3C249.6,87.3,252.3,81.4,253.9,75.3L253.9,75.3z
		 M250.2,15.1c2.4,5.3,3.4,12.1,4.2,19c5.6,2.4,10.3,4.4,15,10.4c1.9-3.5,3-7.6,2.8-11.2c-2.3-6.9-6-12.2-11.4-15.8
		C257.3,16.1,253.7,15.2,250.2,15.1L250.2,15.1z M198.5,14.5c6.3-0.3,12.8,0.2,18.9,2.1c5.5-5.3,12-8,17.4-8.2
		c-3.2-3-6.5-5.5-10.3-7.8c-8.1-1.2-15.5-0.1-23.4,4.4C199.9,7.9,198.9,11.1,198.5,14.5L198.5,14.5z M206.4,50.3
		c3.9-7.4,9.1-12.6,14.8-17.5c7.8,2.1,14.8,5,21.4,8.8c0,7-0.9,14.8-2.2,22.3c-7.2,2.6-14.6,4.3-21.8,4.9
		C213.8,63.3,209,57,206.4,50.3z"/>
</g>
<path class="st6" d="M210.9,84.8c4.2,6.8,9.9,11.3,15.6,13.5c-2.4,1.9-5.4,3.2-8.9,4.1c-9-0.6-17.9-4.3-24.6-9.6
	c-0.5-2.2-0.9-4.9-0.9-7.4C198.1,86.3,204.9,85.3,210.9,84.8z"/>
<g>
	<path class="st7" d="M172.6,58.3c1.9,3.8,4.4,6.2,7.4,8.6c-5-10.5-7.8-6-6.6-27c-1.4,2.9-2.2,6.3-2.3,9.7v1.3
		C171.1,53.5,171.6,56.1,172.6,58.3L172.6,58.3z M253.9,75.3c-3.7,19.5-5.6,16.3,1,18.7c-2.7,0.4-5.8-0.5-9.1-1.3
		C249.6,87.3,252.3,81.4,253.9,75.3L253.9,75.3z M250.2,15.1c2.4,5.3,3.4,12.1,4.2,19c5.6,2.4,10.3,4.4,15,10.4
		c-1.2-7.2-9.2-8-12-13.3C254.4,25.6,255.7,20.1,250.2,15.1L250.2,15.1z M198.5,14.5c6.3-0.3,12.8,0.2,18.9,2.1
		c-9.4-5.8-18.1,0.1-16.3-11.7C199.9,7.9,198.9,11.1,198.5,14.5L198.5,14.5z M206.4,50.3c12,17,9.9,16.9,34,13.6
		c-7.2,2.6-14.6,4.3-21.8,4.9C213.8,63.3,209,57,206.4,50.3z"/>
	<path class="st3" d="M172.6,58.3c1.9,3.8,4.4,6.2,7.4,8.6c-5-10.5-7.8-6-6.6-27C170.6,45.4,170.4,53.1,172.6,58.3L172.6,58.3z
		 M253.9,75.3c-3.7,19.5-5.6,16.3,1,18.7c-2.7,0.4-5.8-0.5-9.1-1.3C249.6,87.3,252.3,81.4,253.9,75.3L253.9,75.3z M250.2,15.1
		c2.4,5.3,3.4,12.1,4.2,19c5.6,2.4,10.3,4.4,15,10.4c-1.2-7.2-9.2-8-12-13.3C254.4,25.6,255.7,20.1,250.2,15.1L250.2,15.1z
		 M198.5,14.5c6.3-0.3,12.8,0.2,18.9,2.1c-9.4-5.8-18.1,0.1-16.3-11.7C199.9,7.9,198.9,11.1,198.5,14.5L198.5,14.5z M206.4,50.3
		c12,17,9.9,16.9,34,13.6c-7.2,2.6-14.6,4.3-21.8,4.9C213.8,63.3,209,57,206.4,50.3z"/>
</g>
<path class="st8" d="M220.8,35.2l19.7,7.5l-2.7,19.2 M224.4,1.2l5.7,4.9l-9.6,5.7"/>
<path class="st7" d="M71.3,46.6l3.4-1.5l3.5-1.4l0.7-0.1L78,44.1l-1.9,1.1l-0.9,0.4l-1.7,1l-2.2,1.2v10.7l12-5.3l2.1-0.8l3.3-1.3
	l3.4-1.3l1.6-0.6l1.5-0.4l2.2-0.6h0.4l0.4-0.1l-0.4,0.1l1.4-0.1l3.9-0.6l4.1-0.4l4-0.6h0.1l4-0.5l4-0.5l4-0.5l0.4-0.1l3.7-0.4
	l4.2-0.5l3.6-0.5l0.6-0.1l4.2-0.6l0.8-0.1l3.6-0.4l1.5-0.1l0.4-0.1h2l3.2-0.1h0.2l3-0.1l2.4-0.1l0.9-0.1l3.2-0.2l1.3-0.3l1.2-0.2
	l1.8-0.6l0.3-0.6l-0.4-0.4l-1.4-0.4l-1.3-0.4l-0.5-0.1L160,38l-2.7-0.1l-3.2-0.2l-2.6-0.1h-0.7l-3.2-0.1h-1.8h-1.5h-3l-1.4,0.1h-1.5
	h-2.4l-2.1-0.1l-0.1-0.1l-1.4-0.1l-0.6-0.4v-0.1l0.1-0.2l0.1-0.1l0.3-0.2l0.4-0.2l0.4-0.2l0.1-0.1l0.4-0.1l0.6-0.2l0.8-0.1l1-0.2
	L137,35h1.2l1.1,0.1h0.2l1.5,0.2l1.7,0.3l1.7,0.4l1.2,0.1l3.4,0.4l2.6,0.1l1.7,0.1h1.4h1.7h1.1l0.8-0.1h1.9l2.2-0.2h0.8h1.4l2.4-0.2
	l2-0.2h0.6l2.6-0.1l2.7-0.2l2.9-0.2l2.9-0.3l0.6-0.1l2.2-0.2l3-0.4l1.5-0.2l1.5-0.2l3-0.4l2.5-1.3l-5-3.1l-0.4-0.1l-4.9-0.3
	l-1.5-0.1l-2.1-0.1l-2.8-0.5l-1.6-0.7l-0.1-0.1l0.3-0.7l0.6-0.9l1.5-0.4l1.4-0.5l1.2-0.4l1-0.4l0.8-0.4l0.7-0.4l0.4-0.4l0.4-0.4
	l0.1-0.2V22l0.1-0.1v-0.3l-0.1-0.2l-0.2-0.4l-0.4-0.4l-0.5-0.3l-0.6-0.4l-0.7-0.4l-0.8-0.4l-0.8-0.3l-1-0.4l-1-0.4l-0.4-0.1
	l-0.5-0.1l-1.2-0.4l-1.1-0.3l-1.2-0.4l-1.2-0.3l-1.3-0.2l-0.8-0.3h-0.4l-1.2-0.4l-1.1-0.1l-1.2-0.3l-1.1-0.3l-1.1-0.3l-1.2-0.2
	l-0.9-0.2l-2.7-0.4l-3.7-0.5h-0.1l-4-0.4l-3.5-0.3h-1.4l-5.3-0.3l-0.8-0.1h-5H134l-3.5,0.1l-4.1,0.1l-2.4,0.1l-6.7,0.6l-6,0.4
	l-0.8,0.1l-7,0.9l-7.1,0.9l-0.6,0.1l-6.4,1.1l-7.1,1.2l-2.1,0.4l-3.5,0.9l-3.1,0.8l-0.8,0.4L71.3,21V46.6z M64.5,49.6l6.8-3V21
	l-3.5,1.2L66,22.9l-6.1,2.6l-4.2,1.6l-1.7,0.8l-5.5,2.5l-4.4,1.9v28.9l1.9-1.3l5.8-4l3.7-2.2L54.6,55l-1.9,1.7l-0.2,0.1l-3,2.3
	l-2.6,1.8l-1.1,0.7l-1.7,1.2v8.1l0.9-0.4l3-1.3l2.5-0.8l1.7-0.4l1.3,0.2l2.3-1.4l5.8-3.7l3.7-1.9l6-2.7V47.8l-0.6,0.3l-2.9,1.4
	l-2.5,1.1L63.7,51L64.5,49.6z M44.1,32.3v28.9l-1.3,0.9l-8.6,5.7L32.5,69l2.6-0.8l3.2-1.8l3.7-2.2l2.1-1.4v8.1L41.7,72l-3.7,1.9
	L37.7,74l-3.6,2.1l-2.4,1.4v-8.1l0.8-0.5h-0.4l-0.4,0.4v-31l1.1-0.6l3.5-1.9l1.8-0.9l5.1-2.3L44.1,32.3z M31.8,38.4v31L31,69.9
	L31,69.9H31l0.7-0.4v8.1l-1.5,0.9l-4,2.4l-3.8,2.4l-0.1,0.1L19,85.6l-2.7,1.8l-0.6,0.3l-2.6,1.9l-1.1,0.6l-1.2,1l-1.9,1.2l-1.4,0.7
	l0.2,0.4v0.4l-0.1,0.4l-0.1,0.4l-0.1,0.5l-0.1,0.4l-0.3,0.4l-0.3,0.4l-0.3,0.4l-0.2,0.2L6,97.2l-0.3,0.1l-0.4-0.1L5,97.1l-0.2-0.5
	l-0.4-0.5l-0.2-0.4l-0.1-0.4L4,95l0.1-0.4v-0.2v-0.3l0.3-0.3l0.1-0.3l0.2-0.2l0.2-0.2l0.2-0.3l0.2-0.1l0.4-0.1L6,92.2L6.3,92
	l0.4-0.2L7,91.6l0.4-0.3l0.4-0.1l0.4-0.3l0.2-0.1l0.4-0.3L9,90.2l0.3-0.4l0.3-0.2l0.2-0.4l0.1-0.1l0.1-0.2l0.2-0.4l0.1-0.4l0.1-0.4
	l0.1-0.4l0.1-0.4l1.9-1.7l5.4-4.5l4.7-3.5l8.4-7.3l-5.6,3.6l-5.5,3.1l-4.3,2.8l-0.9,0.5l-4.8,3.8l-0.1,0.1l-0.8,0.7l-1.3,0.9L6,86.3
	l-0.9,0.4l-0.7,0.4L3,87.9l-1.2,0.7l-0.9,0.6l-0.4,0.1l-0.1-1.2l-0.1-1.2V86L0,85v-1v-1v-0.9l0.1-0.8v-0.9l0.1-0.8l0.1-0.8l0.1-0.4
	l0.1-0.4l0.2-0.7l0.1-0.6L1,76.2l0.1-0.6L1.4,75l0.2-0.5L1.8,74l0.1-0.4L2.2,73l0.3-0.4l0.3-0.4l0.1-0.1L3,71.7l0.3-0.4L3.6,71
	l0.2-0.2l0.3-0.4l0.3-0.3l0.4-0.4L5,69.6l0.4-0.2l0.3-0.2l0.3-0.2l0.4-0.3l0.4-0.2l0.2-0.1l0.4-0.2l0.3-0.1l0.4-0.2l0.4-0.1l0.3-0.2
	l0.4-0.1L9.1,67l0.4-0.2l0.4-0.1l0.3-0.2l0.4-0.1l0.3-0.1l0.2-0.1l0.4-0.3l0.3-0.1l0.4-0.2l0.3-0.2l0.2-0.2l0.3-0.3l0.3-0.2l0.4-0.3
	l0.3-0.3l0.2-0.4l0.3-0.2l0.3-0.4l0.2-0.4l0.2-0.5l-5.8,3.1l-7.5,1L2.4,64l0.6-1.9l0.6-1.7L4.2,59l0.6-1.3l0.8-1.2l1-1l0.7-0.6
	l0.7-0.6L9,53.4l1.4-1l1.9-1.4l2.3-1.7l2.7-1.9l3-2.1l2-1.4l1.4-0.9l4-2.5l1.7-1L31.8,38.4z"/>
<polygon class="st0" points="55.2,50.3 49.4,39.8 57,36 57.7,37.2 51.6,40.2 53.4,43.5 58.7,40.9 59.4,42.1 54.1,44.7 56.7,49.6 "/>
<polygon class="st0" points="63.4,46.5 62.6,45 64.4,44.3 64.9,45.8 "/>
<path class="st0" d="M71.1,43.5l-9.1-9.6l1.7-0.5l6.3,7c0.4,0.6,0.9,1,1.3,1.5c-0.1-0.6-0.1-1.3-0.1-2v-9.3l1.6-0.5l-0.2,12.8
	L71.1,43.5z"/>
<polygon class="st0" points="77.5,41.2 76.9,39.5 78.6,39 79.1,40.6 "/>
<path class="st0" d="M91.7,37.5l-1.4,0.4l-2.3-9.1c-0.3,0.4-0.7,0.8-1.2,1.3c-0.6,0.5-1,0.9-1.4,1.2L85,29.7
	c0.7-0.6,1.3-1.2,1.9-1.9c0.4-0.6,0.8-1.2,0.9-1.8l1-0.3L91.7,37.5z"/>
<path class="st0" d="M98.4,35c0.3,0.1,0.6,0.1,0.9,0c0.4-0.1,0.9-0.3,1.2-0.5c0.4-0.2,0.6-0.6,0.7-0.9c0.3-0.4,0.4-0.9,0.4-1.5
	c0-0.5,0-1.2-0.1-1.7c0-0.1,0-0.1,0-0.4c-0.3,0.6-0.6,0.9-1.1,1.4c-0.6,0.4-1.1,0.6-1.7,0.7c-0.1,0-0.2,0.1-0.3,0.1v-1.4
	c0.1,0,0.4,0,0.5,0c0.7-0.2,1.2-0.4,1.6-1c0.4-0.6,0.6-1.2,0.4-2.2c-0.1-0.8-0.4-1.4-1-1.7c-0.4-0.4-0.9-0.6-1.4-0.6v-1.2
	c0.5,0,1,0.1,1.6,0.4c0.7,0.3,1.3,0.9,1.9,1.5c0.4,0.7,0.8,1.8,1.1,3.3c0.2,1.4,0.2,2.7,0.1,3.6c-0.2,0.9-0.6,1.7-1.2,2.2
	c-0.6,0.6-1.4,0.9-2.3,1.2c-0.4,0.1-0.8,0.1-1.2,0.1V35z M95.5,33.9l1.4-0.4c0.1,0.6,0.5,1.1,0.9,1.4c0.1,0.1,0.4,0.1,0.5,0.1v1.3
	c-0.5-0.1-1-0.2-1.4-0.5C96.2,35.4,95.8,34.7,95.5,33.9L95.5,33.9z M98.4,32.1c-0.9,0-1.7-0.2-2.4-0.8c-0.9-0.6-1.4-1.4-1.6-2.5
	c-0.2-1.2,0-2.2,0.6-3.2c0.6-0.8,1.5-1.3,2.6-1.5c0.3,0,0.6-0.1,0.9-0.1v1.2c-0.1,0-0.3,0-0.4,0c-0.6,0.2-1.2,0.6-1.7,1.2
	c-0.4,0.6-0.5,1.3-0.4,2.2c0.1,0.7,0.4,1.2,1,1.7c0.4,0.2,0.9,0.4,1.4,0.4V32.1z"/>
<path class="st0" d="M111.2,34.6l-1.6,0.1l-0.7-9.2c-0.4,0.4-0.9,0.7-1.4,1.1c-0.6,0.4-1.1,0.6-1.6,0.9l-0.1-1.4
	c0.9-0.4,1.7-0.9,2.2-1.5c0.6-0.6,1-1.2,1.3-1.8h0.9L111.2,34.6z"/>
<path class="st0" d="M120.2,34.1v-2.9l-2,0.1V30h2l-0.2-5.4l-1.8,2.6V25l2-2.8h1.3l0.2,7.8l1.7-0.1l0.1,1.4l-1.8,0.1l0.1,2.8
	L120.2,34.1z M118.2,31.3l-3.5,0.1l-0.1-1.4l3.6-5.1v2.2l-2,2.9l2-0.1V31.3z"/>
<path class="st9" d="M102.5,76.6l3.3-1.2l3.4-1.1l0.6-0.1l-0.8,0.5l-1.9,0.9l-0.8,0.4l-1.7,0.8l-2.2,0.9v10.3l10.7-3.7l2-0.6l3.2-1
	l3.2-0.9l1.7-0.4l1.4-0.4l2-0.4l0.4-0.1h0.4l-0.3,0.1h1.3l3.7-0.1l3.8-0.2l3.8-0.1l3.7-0.1h4l3.8-0.2h0.4l3.5-0.1l4-0.1l3.5-0.1h0.6
	l4-0.2l0.7-0.1l3.5-0.1h1.4h0.4l1.9,0.1l2.9,0.3h0.4l2.7,0.1l2.2,0.1l0.9,0.1h3l1.4-0.1l1.2-0.1l1.7-0.5l0.4-0.5l-0.4-0.5l-1.2-0.4
	l-1.3-0.4l-0.5-0.2l-2.1-0.5l-2.6-0.6l-2.9-0.4l-2.4-0.4l-0.6-0.1l-3.1-0.4l-1.7-0.1l-1.3-0.1l-3-0.2l-1.3-0.1l-1.4-0.1l-2.4-0.2
	l-1.7-0.4l-0.2-0.1l-1.2-0.1l-0.6-0.4v-0.2l0.1-0.1l0.1-0.1l0.3-0.2l0.3-0.1l0.4-0.2l0.3-0.1l0.2-0.1l0.7-0.1l0.7-0.1l0.9-0.1h1
	l1.2,0.1l1,0.2h0.2l1.4,0.3l1.4,0.4l1.6,0.5l1.1,0.2l3.1,0.7l2.4,0.2l1.6,0.2l1.4,0.3l1.5,0.1h0.9l0.8,0.1l1.9,0.1l1.9,0.1l0.9,0.1
	h1.3l2.3,0.1h1.9l0.6,0.1h2.4h2.6l2.6,0.1h2.8h0.5h2.2l2.7-0.1h1.4l1.4-0.1l2.7-0.1l2.5-1.2l-4.5-3.5l-0.3-0.3l-4.5-0.6l-1.4-0.4
	l-1.9-0.2l-2.5-0.7l-1.4-0.9l-0.2-0.1l0.4-0.7l0.6-1l1.5-0.1l1.3-0.3l1.1-0.4l1-0.1l0.9-0.4l0.6-0.3l0.4-0.4l0.4-0.2l0.2-0.4
	l0.1-0.1l0.1-0.4l-0.1-0.2l-0.2-0.4l-0.2-0.4l-0.5-0.4l-0.5-0.4l-0.6-0.5l-0.7-0.4l-0.7-0.4l-0.9-0.4l-0.8-0.4l-0.4-0.3l-0.6-0.1
	l-0.9-0.4l-1-0.4l-1.1-0.4l-1.1-0.4l-1.2-0.4l-0.8-0.3l-0.3-0.2l-1.2-0.4l-0.9-0.2l-1.2-0.4l-1-0.4l-1-0.4l-1-0.5l-0.9-0.1l-2.5-0.7
	l-3.3-0.8l-0.2-0.1l-3.7-0.7l-3.2-0.6l-1.3-0.1l-4.9-0.7l-0.8-0.2l-4.6-0.4l-2.4-0.2l-3.2-0.3l-3.9-0.2l-2.2-0.1l-6.2-0.1l-5.9-0.1
	h-0.7l-6.5,0.2l-6.7,0.3h-0.6l-6,0.4l-6.7,0.6l-1.9,0.2l-3.3,0.4l-3,0.6l-0.7,0.1l-4,1.1V76.6z M95.9,78.9l6.6-2.3V51.8l-0.9,0.3
	l-1.7,0.5l-6,1.9l-4.1,1.4l-1.6,0.5l-5.3,1.9l-5.2,1.9l-1.9,0.7v27.9l1.8-1.2l6-3.5l3.6-1.8l-0.9,1.1l-1.9,1.4L84,84.9L80.9,87
	l-2.4,1.4l-1.2,0.7l-1.6,0.9v7.8l3-1l2.3-0.6l1.7-0.2l1.2,0.4l2.2-1.2l5.8-3l3.7-1.7l6.9-2.4V77.8l-0.6,0.3L99,79.1l-2.4,0.8
	l-1.5,0.3L95.9,78.9z M75.7,60.9v27.9l-1.2,0.7l-8.6,5l-1.6,0.9l2.4-0.6l3.2-1.3l3.6-2l2.2-1.2v7.8l-3.2,1.2l-3.6,1.6l-0.4,0.1
	l-3.4,1.7l-1.7,0.9v-7.6l0.9-0.4h-0.5l-0.4,0.3V66.1l0.9-0.4l3.1-1.4l3.4-1.5l1.9-0.7L75.7,60.9z M63.4,66.1v29.4l-0.6,0.5h-0.2h0.2
	l0.6-0.4v7.6l-2.2,1.1l-4,2.2l-3.8,2.1h-0.3l-3.2,1.9l-2.8,1.4l-0.4,0.2l-2.6,1.7l-1.1,0.6l-1.2,0.7l-1.9,1.1l-1.4,0.6l0.1,0.4
	l-0.1,0.4l-0.1,0.4l-0.1,0.4l-0.2,0.4l-0.1,0.4l-0.2,0.5l-0.4,0.3l-0.2,0.4l-0.3,0.2l-0.3,0.1h-0.3l-0.4-0.1l-0.2-0.3l-0.3-0.4
	l-0.3-0.5v-0.4l-0.1-0.4v-0.4l0.1-0.4l0.1-0.3v-0.1l0.2-0.3l0.1-0.4l0.2-0.2l0.2-0.1l0.3-0.3l0.3-0.1l0.3-0.2l0.4-0.1l0.2-0.2
	l0.4-0.1l0.4-0.1l0.3-0.2l0.4-0.3l0.4-0.1l0.4-0.1l0.2-0.3l0.4-0.3l0.3-0.1l0.4-0.4l0.2-0.3l0.1-0.2l0.1-0.1l0.3-0.4l0.1-0.4
	l0.2-0.4l0.1-0.4l0.1-0.4l1.9-1.5l5.5-3.9l4.6-3.2l8.5-6.5L57,99l-5.3,2.7l-4.5,2.3l-0.8,0.6l-4.8,3.2l-0.1,0.1l-0.8,0.6l-1.4,0.6
	l-1.4,0.8l-0.9,0.4l-0.7,0.4l-1.5,0.7l-1.2,0.5l-0.9,0.5l-0.4,0.1l0.1-1.2v-1.1v-1.1v-1.1v-0.9v-0.1l0.2-0.9l0.1-0.9l0.2-0.9
	l0.1-0.8l0.1-0.8l0.2-0.8l0.1-0.4l0.1-0.4l0.3-0.6l0.1-0.6l0.3-0.6l0.3-0.6l0.1-0.5l0.3-0.4l0.1-0.6l0.4-0.4l0.2-0.4l0.2-0.4
	l0.4-0.4l0.1-0.2l0.1-0.1l0.3-0.4l0.3-0.3l0.4-0.3l0.2-0.2l0.4-0.3l0.3-0.3l0.3-0.1l0.4-0.3l0.2-0.2l0.4-0.1l0.3-0.1l0.4-0.2
	l0.3-0.1l0.4-0.2l0.2-0.1l0.4-0.1l0.4-0.1l0.3-0.2l0.3-0.1l0.4-0.1l0.2-0.2l0.4-0.1l0.4-0.1l0.3-0.2l0.4-0.1l0.3-0.2l0.4-0.1
	l0.1-0.1l0.4-0.2l0.3-0.1l0.4-0.2l0.2-0.2l0.3-0.3l0.3-0.3l0.4-0.1l0.1-0.3l0.4-0.4l0.3-0.3l0.3-0.4l0.2-0.4l-5.7,2.4l-7.1,0.4
	l1.1-2.2l0.8-1.8l0.6-1.6l0.6-1.4l0.7-1.2l0.8-1.1l1.1-1l0.7-0.5l0.7-0.4l1-0.8l1.4-1l2-1.2l2.4-1.4l2.6-1.6l3-1.9l2.1-1.2l1.4-0.7
	l4-2.2L63.4,66.1z"/>
<polygon class="st0" points="67.1,89.6 60.3,77.6 55.8,80.1 54.9,78.5 65.7,72.4 66.6,74 62.1,76.6 68.9,88.5 "/>
<path class="st0" d="M78.3,79.6l1.9-0.6c0.2,1.2,0,2.2-0.4,3.2c-0.5,0.9-1.4,1.7-2.5,2.2C76.1,85,75,85.2,73.9,85V83H74
	c0.9,0.4,1.7,0.4,2.5-0.1c0.7-0.3,1.1-0.7,1.4-1.2C78.3,81.1,78.3,80.4,78.3,79.6L78.3,79.6z M73.9,73.2v1.7c0.4-0.1,0.9,0,1.4,0.2
	c0.6,0.3,1.2,0.8,1.6,1.7l-3,1.4V80l5.5-2.7c-0.1-0.3-0.1-0.4-0.1-0.5c-0.9-1.7-1.9-2.8-3.2-3.3C75.3,73.3,74.6,73.2,73.9,73.2z
	 M73.9,85c-0.4,0-0.6-0.1-0.9-0.2c-1.2-0.4-2.4-1.6-3.2-3.2c-0.7-1.7-0.9-3.4-0.5-4.7c0.4-1.4,1.3-2.3,2.7-3
	c0.6-0.4,1.3-0.6,1.9-0.6v1.7c-0.4,0-0.9,0.1-1.2,0.3c-0.8,0.4-1.3,1-1.6,1.8c-0.4,0.8-0.3,1.6,0.1,2.6l2.7-1.3V80l-2.2,1
	c0.6,1,1.4,1.7,2.2,2V85z"/>
<path class="st0" d="M83.8,81.1l-4-10.6l1.6-0.6l0.6,1.5c0.3-1.4,1.2-2.4,2.7-3c0.6-0.3,1.2-0.4,1.9-0.4c0.6,0,1.2,0.2,1.5,0.4
	c0.4,0.4,0.8,0.7,1.2,1.2c0.2,0.4,0.4,0.9,0.7,1.7l2.4,6.5l-1.7,0.7l-2.5-6.4c-0.2-0.8-0.5-1.3-0.9-1.6c-0.2-0.4-0.5-0.6-1-0.6
	c-0.4-0.1-0.9-0.1-1.4,0.1c-0.7,0.4-1.4,0.8-1.7,1.5c-0.4,0.6-0.3,1.7,0.1,3l2.2,5.8L83.8,81.1z"/>
<path class="st0" d="M95.3,76.6l-3.1-10.9l1.7-0.4l0.4,1.5c0.4-1.4,1.4-2.3,3-2.7c0.6-0.2,1.3-0.2,1.9-0.2c0.6,0.1,1.1,0.4,1.5,0.6
	c0.4,0.4,0.7,0.7,0.9,1.2c0.2,0.4,0.4,1,0.6,1.8l1.9,6.8l-1.8,0.4l-1.9-6.6c-0.3-0.7-0.4-1.2-0.7-1.6c-0.2-0.4-0.5-0.6-0.9-0.7
	c-0.5-0.1-0.9-0.1-1.4,0.1c-0.8,0.2-1.4,0.6-1.8,1.3c-0.4,0.7-0.4,1.7-0.1,3.1l1.7,6L95.3,76.6z"/>
<path class="st0" d="M113.9,68.2l1.9-0.2c-0.1,1.2-0.4,2.2-1.2,3s-1.7,1.4-3,1.7c-0.6,0.1-1.1,0.1-1.6,0.1v-1.7
	c0.4,0.1,0.8,0.1,1.2-0.1c0.7-0.1,1.3-0.4,1.7-0.9C113.5,69.8,113.8,69.1,113.9,68.2L113.9,68.2z M110.2,60.9c1.1-0.1,2,0.2,3,0.9
	c1.2,0.8,1.9,2.1,2.3,4c0,0,0,0.2,0,0.5l-5.3,1.1v-1.7l3.1-0.6c-0.4-0.9-0.7-1.6-1.2-2c-0.6-0.4-1.2-0.6-1.9-0.6V60.9z M110.2,72.8
	c-1-0.1-1.9-0.4-2.6-0.9c-1.2-0.9-1.9-2.1-2.3-4c-0.4-1.8-0.3-3.4,0.5-4.6c0.7-1.3,1.9-2.1,3.5-2.3c0.3-0.1,0.6-0.1,0.9-0.1v1.6
	c-0.2,0-0.4,0-0.6,0.1c-0.9,0.1-1.5,0.7-2,1.3c-0.4,0.7-0.6,1.6-0.4,2.5l3.1-0.6v1.7l-2.9,0.6c0.3,1.2,0.9,2.2,1.5,2.6
	c0.4,0.3,0.9,0.4,1.4,0.6V72.8z"/>
<path class="st0" d="M118.8,70.8L117,59.6l1.8-0.2l0.2,1.6c0.7-1.4,1.7-2.1,3.4-2.4c0.6-0.2,1.2-0.2,1.9,0.1c0.6,0.2,1,0.4,1.4,0.7
	s0.6,0.8,0.9,1.4c0.1,0.2,0.2,0.9,0.4,1.7l0.9,6.9l-1.9,0.4l-1-6.8c-0.1-0.9-0.3-1.4-0.5-1.8c-0.1-0.4-0.5-0.6-0.9-0.8
	c-0.4-0.2-0.8-0.2-1.4-0.1c-0.8,0.1-1.4,0.6-1.9,1.1c-0.5,0.6-0.6,1.7-0.4,3l0.9,6.2L118.8,70.8z"/>
<path class="st0" d="M135.3,57.1c0.6-0.1,1.2,0.1,1.8,0.3c0.6,0.3,1.2,0.6,1.6,1.1c0.4,0.4,0.7,1.1,1.1,1.7c0.3,0.8,0.4,1.5,0.5,2.3
	c0.1,2-0.1,3.5-1,4.7c-0.9,1.1-2,1.7-3.3,1.9c-0.2,0-0.4,0-0.6,0v-1.5c0.1,0,0.1,0,0.3,0c0.9-0.1,1.5-0.6,2.2-1.4
	c0.5-0.8,0.6-1.9,0.6-3.3c-0.1-1.5-0.4-2.6-1.2-3.2c-0.5-0.5-1.2-0.9-1.9-0.9V57.1z M132.8,69l-1.7,0.1l-1.4-15.7l1.9-0.1l0.4,5.6
	c0.8-1.1,1.8-1.7,3-1.8c0.1,0,0.2,0,0.3,0v1.6c-0.1,0-0.2,0-0.4,0c-0.8,0.1-1.5,0.5-2,1.3c-0.6,0.8-0.7,1.9-0.7,3.3
	c0.1,1.3,0.4,2.3,0.8,2.8c0.7,0.8,1.4,1.2,2.3,1.4V69c-1.1-0.1-1.9-0.6-2.7-1.4L132.8,69z"/>
<path class="st0" d="M143,68.1l-0.4-11.3l1.7-0.1v1.7c0.5-0.6,0.9-1.3,1.3-1.5c0.4-0.4,0.7-0.4,1.2-0.4c0.6-0.1,1.2,0.2,1.9,0.6
	l-0.6,1.7c-0.6-0.2-1-0.4-1.4-0.4c-0.4,0-0.8,0.2-1.1,0.5c-0.4,0.1-0.6,0.5-0.7,1.1c-0.3,0.6-0.3,1.4-0.3,2.2l0.2,5.9L143,68.1z"/>
<path class="st0" d="M155.2,56.3c0.1,0,0.1,0,0.2,0c1.5,0.1,2.8,0.7,3.7,1.7c0.9,1,1.4,2.4,1.3,4.2c0,1.5-0.3,2.6-0.8,3.5
	c-0.4,0.8-1.2,1.4-1.9,1.9c-0.7,0.4-1.7,0.6-2.5,0.6v-1.5c0.9-0.1,1.6-0.4,2.2-1c0.6-0.8,1.1-1.8,1.1-3.4c0-1.4-0.2-2.4-0.8-3.1
	c-0.6-0.9-1.4-1.2-2.3-1.3c-0.1,0-0.1,0-0.2,0V56.3z M149.8,62.1c0.1-2.1,0.7-3.7,1.9-4.6c0.9-0.7,2-1.1,3.4-1.2v1.6
	c-0.9,0.1-1.7,0.4-2.3,1.1c-0.7,0.6-1,1.7-1.1,3.1c0,1.5,0.2,2.6,0.8,3.4c0.6,0.7,1.4,1.2,2.3,1.2c0.1,0,0.2,0,0.3,0v1.5
	c-0.1,0-0.2,0-0.3,0c-1.6,0-2.8-0.6-3.8-1.7C150.2,65.5,149.8,64,149.8,62.1z"/>
<path class="st0" d="M162.4,68.2l1-11.2l1.8,0.1l-0.2,1.7c0.9-1.2,2.2-1.7,3.9-1.5c0.6,0,1.2,0.2,1.7,0.5c0.6,0.4,1,0.6,1.2,1.2
	c0.3,0.4,0.5,0.9,0.6,1.4c0,0.4,0,1-0.1,1.9l-0.6,7l-1.9-0.1l0.6-6.9c0.1-0.8,0.1-1.3,0-1.8c-0.1-0.4-0.4-0.6-0.7-0.9
	c-0.4-0.3-0.8-0.4-1.3-0.4c-0.8-0.1-1.5,0.1-2.2,0.5c-0.7,0.4-1.1,1.4-1.2,2.9l-0.5,6.1L162.4,68.2z"/>
<path class="st0" d="M174.5,69.5l1.9-11.2l1.7,0.3l-0.1,1.6c0.9-1.1,2.2-1.5,3.8-1.2c0.6,0.1,1.2,0.3,1.8,0.6
	c0.5,0.4,0.9,0.6,1.1,1.2c0.2,0.4,0.4,0.9,0.4,1.4c0,0.4,0,0.9-0.2,1.9l-1.1,6.8l-1.9-0.3l1.1-6.8c0.1-0.8,0.1-1.4,0.1-1.8
	c-0.1-0.4-0.4-0.8-0.7-1c-0.2-0.3-0.6-0.6-1.2-0.6c-0.8-0.1-1.5,0-2.2,0.4c-0.7,0.4-1.2,1.3-1.4,2.8l-1,6L174.5,69.5z"/>
</svg>
